<svg xmlns="http://www.w3.org/2000/svg" viewBox="0 0 520 300" role="img" aria-labelledby="title desc">
  <title id="title">Energy metering use case</title>
  <desc id="desc">Energomera meters send T1 and T2 values through TPlung to dashboards and reports.</desc>
  <defs>
    <linearGradient id="bg" x1="0" x2="1" y1="0" y2="1">
      <stop offset="0" stop-color="#172d38"/>
      <stop offset="1" stop-color="#0c1720"/>
    </linearGradient>
  </defs>
  <rect width="520" height="300" rx="18" fill="url(#bg)"/>
  <g transform="translate(72 70)">
    <rect width="112" height="152" rx="14" fill="#07101c" stroke="#f2b84b" stroke-width="4"/>
    <rect x="18" y="20" width="76" height="38" rx="6" fill="#203941"/>
    <path d="M29 39 H83" stroke="#d8f6f8" stroke-width="6" stroke-linecap="round"/>
    <circle cx="56" cy="98" r="30" fill="none" stroke="#7bcff4" stroke-width="5"/>
    <path d="M56 98 L74 83" stroke="#7bcff4" stroke-width="5" stroke-linecap="round"/>
    <path d="M29 134 H84" stroke="#4bd08f" stroke-width="7" stroke-linecap="round"/>
  </g>
  <g transform="translate(202 70)">
    <rect width="112" height="152" rx="14" fill="#07101c" stroke="#f2b84b" stroke-width="4"/>
    <rect x="18" y="20" width="76" height="38" rx="6" fill="#203941"/>
    <path d="M29 39 H83" stroke="#d8f6f8" stroke-width="6" stroke-linecap="round"/>
    <circle cx="56" cy="98" r="30" fill="none" stroke="#7bcff4" stroke-width="5"/>
    <path d="M56 98 L39 78" stroke="#7bcff4" stroke-width="5" stroke-linecap="round"/>
    <path d="M29 134 H84" stroke="#4bd08f" stroke-width="7" stroke-linecap="round"/>
  </g>
  <g transform="translate(344 88)">
    <rect width="104" height="116" rx="14" fill="#132733" stroke="#7bcff4" stroke-width="4"/>
    <path d="M18 85 V42 M42 85 V25 M66 85 V55 M90 85 V35" stroke="#4bd08f" stroke-width="8" stroke-linecap="round"/>
    <path d="M16 91 H92" stroke="#d8f6f8" stroke-width="3" opacity="0.55"/>
  </g>
  <g fill="none" stroke="#7bcff4" stroke-width="4" stroke-linecap="round" opacity="0.85">
    <path d="M186 124 C205 112 222 112 242 124"/>
    <path d="M315 126 C337 111 358 112 380 129"/>
  </g>
  <g transform="translate(250 235)">
    <rect x="-80" y="-18" width="160" height="36" rx="18" fill="#201b10" stroke="#f2b84b"/>
    <text x="0" y="6" fill="#ffe09a" font-family="Consolas, monospace" font-size="18" text-anchor="middle">T1 / T2</text>
  </g>
</svg>
