<svg xmlns="http://www.w3.org/2000/svg" viewBox="0 0 520 300" role="img" aria-labelledby="title desc">
  <title id="title">USB gateway use case</title>
  <desc id="desc">A USB TPlung stick sends BLE telemetry to a router, MQTT broker and Home Assistant.</desc>
  <defs>
    <linearGradient id="bg" x1="0" x2="1" y1="0" y2="1">
      <stop offset="0" stop-color="#152b42"/>
      <stop offset="1" stop-color="#0c171f"/>
    </linearGradient>
  </defs>
  <rect width="520" height="300" rx="18" fill="url(#bg)"/>
  <g transform="translate(65 94)">
    <rect width="90" height="82" rx="14" fill="#132733" stroke="#7bcff4" stroke-width="4"/>
    <rect x="22" y="20" width="46" height="42" rx="8" fill="#f2b84b"/>
    <circle cx="37" cy="41" r="6" fill="#102029"/>
    <path d="M51 34 H61 M51 48 H61" stroke="#102029" stroke-width="5" stroke-linecap="round"/>
  </g>
  <g transform="translate(214 84)">
    <rect width="100" height="104" rx="16" fill="#07101c" stroke="#f2b84b" stroke-width="4"/>
    <path d="M18 33 H82 M18 55 H82 M18 77 H62" stroke="#d8f6f8" stroke-width="7" stroke-linecap="round"/>
    <circle cx="82" cy="78" r="6" fill="#4bd08f"/>
  </g>
  <g transform="translate(370 72)">
    <rect width="94" height="128" rx="16" fill="#132733" stroke="#7bcff4" stroke-width="4"/>
    <path d="M22 84 V50 M47 84 V31 M72 84 V61" stroke="#4bd08f" stroke-width="8" stroke-linecap="round"/>
    <path d="M19 94 H75" stroke="#d8f6f8" stroke-width="4" opacity="0.6"/>
    <text x="47" y="116" fill="#ffe09a" font-family="Consolas, monospace" font-size="18" text-anchor="middle">HA</text>
  </g>
  <g fill="none" stroke="#7bcff4" stroke-width="5" stroke-linecap="round" opacity="0.9">
    <path d="M157 126 C179 104 202 104 224 126"/>
    <path d="M315 126 C339 104 365 104 389 126"/>
  </g>
  <g transform="translate(214 215)">
    <rect width="100" height="34" rx="17" fill="#203941" stroke="#7bcff4"/>
    <text x="50" y="23" fill="#d8f6f8" font-family="Consolas, monospace" font-size="17" text-anchor="middle">MQTT</text>
  </g>
  <path d="M264 188 V215" stroke="#7bcff4" stroke-width="4" stroke-linecap="round"/>
</svg>
